<svg data-v-0dd9719b="" version="1.0" xmlns="http://www.w3.org/2000/svg" xmlns:xlink="http://www.w3.org/1999/xlink" width="100%" height="100%" viewBox="0 0 340.000000 250.000000" preserveAspectRatio="xMidYMid meet" color-interpolation-filters="sRGB" style="margin: auto;"> <rect data-v-0dd9719b="" x="0" y="0" width="100%" height="100%" fill="#fff" fill-opacity="1" class="background"></rect> <rect data-v-0dd9719b="" x="0" y="0" width="100%" height="100%" fill="url(#watermark)" fill-opacity="1" class="watermarklayer"></rect> <g data-v-0dd9719b="" fill="#ac9559" class="icon-text-wrapper icon-svg-group iconsvg" transform="translate(48.334999084472656,95)"><g class="iconsvg-imagesvg" transform="translate(0,0)"><g><rect fill="#ac9559" fill-opacity="0" stroke-width="2" x="0" y="0" width="60" height="60" class="image-rect"></rect> <svg x="0" y="0" width="60" height="60" filtersec="colorsb5610823493" class="image-svg-svg primary" style="overflow: visible;"><svg xmlns="http://www.w3.org/2000/svg" viewBox="0.0000064252012634824496 0.004002803936600685 53.47999954223633 53.48002243041992"><g><g><path d="M44.63 46.618a26.74 26.74 0 1 0-17.889 6.866V26.742z" fill="#ac9559"></path><path d="M26.741 53.484H50.81l-6.18-6.866a26.646 26.646 0 0 1-17.889 6.866z" fill="#c1b083"></path><path d="M26.741 26.742v26.742a26.646 26.646 0 0 0 17.889-6.866z" fill="#82672e"></path></g></g></svg></svg> <!----></g></g> <g transform="translate(67,5.59375)"><g data-gra="path-name" fill-rule="" class="tp-name iconsvg-namesvg" transform="translate(0,0)"><g transform="scale(1)"><g><path d="M31.72 3.17L31.72 3.17 21.13 3.17 21.13 0.79 30.53 0.79 30.53-1.8 5.4-1.8 5.4 3.13 3.02 3.13 3.02-13.25Q3.02-13.75 3.37-14.09 3.71-14.44 4.21-14.44L4.21-14.44 31.72-14.44Q32.22-14.44 32.56-14.09 32.9-13.75 32.9-13.25L32.9-13.25 32.9 1.98Q32.9 2.48 32.56 2.83 32.22 3.17 31.72 3.17L31.72 3.17ZM33.66-27.43L33.66-25.06 19.15-25.06 19.15-23 32.87-23 32.87-20.63 19.15-20.63 19.15-18.58 34.13-18.58 34.13-16.2 1.8-16.2 1.8-18.58 16.78-18.58 16.78-20.63 3.06-20.63 3.06-23 16.78-23 16.78-25.06 2.23-25.06 2.23-27.43 16.78-27.43 16.78-29.02 19.15-29.02 19.15-27.43 33.66-27.43ZM30.53-9.25L30.53-12.06 5.4-12.06 5.4-9.25 30.53-9.25ZM5.4-6.91L5.4-4.14 30.53-4.14 30.53-6.91 5.4-6.91ZM68.94 3.06L68.94 3.06 52.63 3.06 52.63 0.68 67.75 0.68 67.75-12.49 41.26-12.49Q40.75-12.49 40.41-12.83 40.07-13.18 40.07-13.68L40.07-13.68 40.07-25.92Q40.07-26.42 40.41-26.75 40.75-27.07 41.26-27.07L41.26-27.07 51.95-27.07 53.42-29.63 55.48-28.44 54.65-27.07 68.29-27.07Q68.8-27.07 69.14-26.75 69.48-26.42 69.48-25.92L69.48-25.92 69.48-17.93Q69.48-17.42 69.14-17.08 68.8-16.74 68.29-16.74L68.29-16.74 58.64-16.74 58.64-19.08 67.1-19.08 67.1-24.73 42.44-24.73 42.44-14.87 68.94-14.87Q69.44-14.87 69.79-14.53 70.13-14.18 70.13-13.68L70.13-13.68 70.13 1.87Q70.13 2.38 69.79 2.72 69.44 3.06 68.94 3.06L68.94 3.06ZM62.03-1.55L62.03-1.55 39.35-1.55Q38.84-1.55 38.5-1.89 38.16-2.23 38.16-2.74L38.16-2.74 38.16-10.44 40.54-10.44 40.54-3.92 49.5-3.92 49.5-10.73 51.88-10.73 51.88-3.92 60.84-3.92 60.84-10.44 63.22-10.44 63.22-2.74Q63.22-2.23 62.87-1.89 62.53-1.55 62.03-1.55L62.03-1.55ZM55.87-16.78L53.68-15.88 50.62-23.33 52.81-24.23 55.87-16.78ZM86.51-12.13L86.51-12.13 84.74-13.68 91.15-20.95 86.44-20.95Q85.61-20.95 85.32-21.71L85.32-21.71Q85.18-22.07 85.27-22.41 85.36-22.75 85.64-23.04L85.64-23.04 93.82-30.13 95.36-28.37 89.57-23.33 101.7-23.33 98.03-26.39 99.54-28.22 105.7-23.04Q105.98-22.79 106.07-22.43 106.16-22.07 106.02-21.74L106.02-21.74Q105.91-21.38 105.61-21.17 105.3-20.95 104.94-20.95L104.94-20.95 100.19-20.95 106.6-13.68 104.83-12.13 104.51-12.49Q104.54-12.35 104.54-12.2L104.54-12.2 104.54-8.68Q104.54-7.99 103.97-7.63L103.97-7.63 98.06-4.14 106.49 0.97 105.26 2.99 95.8-2.77 86.04 2.99 84.85 0.97 93.49-4.18 85.72-8.93 86.94-10.94 95.8-5.54 102.17-9.32 102.17-11.02 90-11.02Q89.24-11.02 88.92-11.7L88.92-11.7Q88.78-11.99 88.81-12.33 88.85-12.67 89.06-12.92L89.06-12.92 92.27-16.81 94.1-15.34 92.48-13.36 103.36-13.36Q103.61-13.36 103.82-13.25L103.82-13.25 98.42-19.4 100.19-20.95 91.15-20.95 92.92-19.4 86.51-12.13ZM83.23 3.1L83.23 3.1 75.71 3.1 75.71 0.76 82.04 0.76 82.04-12.46 75.02-12.46Q74.48-12.46 74.16-12.85L74.16-12.85Q73.8-13.25 73.87-13.75L73.87-13.75 74.74-24.12 77.08-23.9 76.32-14.83 81.07-14.83 81.94-26.64 73.87-26.64 73.87-29.02 83.2-29.02Q83.74-29.02 84.06-28.62L84.06-28.62Q84.46-28.3 84.38-27.76L84.38-27.76 83.41-14.8Q83.81-14.76 84.06-14.47L84.06-14.47Q84.42-14.15 84.42-13.64L84.42-13.64 84.42 1.91Q84.42 2.41 84.08 2.75 83.74 3.1 83.23 3.1L83.23 3.1ZM81.29-6.3L74.2-3.67 73.37-5.9 80.46-8.5 81.29-6.3ZM141.8-25.74L141.8-25.74 135.5-25.74 135.5-24.26 141.44-24.26 141.44-21.89 135.5-21.89 135.5-20.45 142.13-20.45 142.13-18.07 135.5-18.07 135.5-16.63 140.44-16.63Q140.94-16.63 141.28-16.29 141.62-15.95 141.62-15.44L141.62-15.44 141.62-7.6Q141.62-7.09 141.28-6.75 140.94-6.41 140.44-6.41L140.44-6.41 110.34-6.41 110.34-8.78 139.28-8.78 139.28-10.33 111.49-10.33 111.49-12.71 139.28-12.71 139.28-14.26 110.84-14.26 110.84-16.63 116.5-16.63 116.5-18.07 109.87-18.07 109.87-20.45 116.5-20.45 116.5-21.89 110.56-21.89 110.56-24.26 116.5-24.26 116.5-25.74 110.2-25.74 110.2-28.12 116.5-28.12 116.5-29.02 118.87-29.02 118.87-28.12 125.17-28.12 125.17-25.74 118.87-25.74 118.87-24.26 124.85-24.26 124.85-21.89 118.87-21.89 118.87-20.45 125.5-20.45 125.5-18.07 118.87-18.07 118.87-16.63 133.13-16.63 133.13-18.07 126.5-18.07 126.5-20.45 133.13-20.45 133.13-21.89 127.19-21.89 127.19-24.26 133.13-24.26 133.13-25.74 126.83-25.74 126.83-28.12 133.13-28.12 133.13-29.02 135.5-29.02 135.5-28.12 141.8-28.12 141.8-25.74ZM137.48 3.17L137.48 3.17 119.16 3.17Q118.66 3.17 118.31 2.83 117.97 2.48 117.97 1.98L117.97 1.98 117.97-5.51 120.35-5.51 120.35 0.79 137.48 0.79 137.48 3.17ZM130.68-1.26L128.38-0.65 127.08-5.54 129.35-6.16 130.68-1.26ZM114.23-4.36L112.18 3.31 109.87 2.7 111.96-4.97 114.23-4.36ZM142.13 2.77L139.79 3.2 138.35-4.43 140.69-4.86 142.13 2.77ZM169.34 3.02L169.34 3.02 159.98 3.02 159.98 0.65 168.16 0.65 168.16-15.91 158.18-15.91 158.18-18.29 178.13-18.29 178.13-15.91 170.53-15.91 170.53 1.84Q170.53 2.34 170.19 2.68 169.85 3.02 169.34 3.02L169.34 3.02ZM150.12 3.06L150.12 3.06 147.78 3.06 147.78-14.08Q147.78-14.69 148.25-15.05L148.25-15.05 157.72-21.89 159.08-19.98 150.12-13.5 150.12 3.06ZM157-27.54L146.56-19.98 145.19-21.89 155.63-29.45 157-27.54ZM177.66-28.98L177.66-26.64 158.87-26.64 158.87-28.98 177.66-28.98Z" transform="translate(-1.7999999523162842, 30.1299991607666)"></path></g> <!----> <!----> <!----> <!----> <!----> <!----> <!----></g></g> <g data-gra="path-slogan" fill-rule="" class="tp-slogan iconsvg-slogansvg" fill="#ac9559" transform="translate(5,39.439998626708984)"><rect x="0" height="1" y="4.185000419616699" width="14.375"></rect> <rect height="1" y="4.185000419616699" width="14.375" x="151.9550018310547"></rect> <g transform="translate(17.375,0)"><g transform="scale(1)"><path d="M5.91-1.08L5.02-1.78L5.63-2.48L6.70-1.64Q7.69-2.63 7.69-4.27L7.69-4.27Q7.50-7.64 4.69-7.83L4.69-7.83Q1.83-7.69 1.69-4.27L1.69-4.27Q1.83-0.94 4.69-0.80L4.69-0.80Q5.39-0.80 5.91-1.08L5.91-1.08ZM7.64-0.94L8.77-0.05L8.20 0.56L6.89-0.33Q6.05 0.14 4.69 0.14L4.69 0.14Q0.75 0 0.47-4.27L0.47-4.27Q0.70-8.72 4.69-8.81L4.69-8.81Q8.58-8.67 8.86-4.27L8.86-4.27Q8.81-2.20 7.64-0.94L7.64-0.94ZM10.41-8.58L11.58-8.58L11.58 0L10.41 0L10.41-8.58ZM14.95-8.58L19.27-1.64L19.27-8.58L20.39-8.58L20.39 0L19.08 0L14.72-6.94L14.67-6.94L14.67 0L13.55 0L13.55-8.58L14.95-8.58ZM28.59-3.61L25.97-3.61L25.97-4.59L29.72-4.59L29.72 0L28.97 0L28.69-1.08Q27.70 0.09 25.88 0.14L25.88 0.14Q24.14 0.14 23.20-0.75L23.20-0.75Q21.80-2.06 21.84-4.36L21.84-4.36Q22.17-8.63 25.92-8.81L25.92-8.81Q29.11-8.63 29.58-6L29.58-6L28.45-6Q27.98-7.78 25.88-7.83L25.88-7.83Q23.20-7.64 23.06-4.31L23.06-4.31Q23.06-0.75 25.92-0.75L25.92-0.75Q26.95-0.75 27.70-1.31L27.70-1.31Q28.64-2.06 28.59-3.61L28.59-3.61ZM35.02 0L31.55 0L31.55-8.58L35.06-8.58Q38.53-8.39 38.67-4.41L38.67-4.41Q38.48-0.09 35.02 0L35.02 0ZM34.88-7.64L32.72-7.64L32.72-0.98L34.97-0.98Q37.41-1.13 37.50-4.31L37.50-4.31Q37.45-7.55 34.88-7.64L34.88-7.64ZM45.80 0L44.95-2.48L41.48-2.48L40.59 0L39.42 0L42.66-8.58L43.97-8.58L47.06 0L45.80 0ZM43.22-7.31L41.86-3.52L44.53-3.52L43.27-7.31L43.22-7.31ZM54.89-4.27L54.89-4.27Q54.70-7.64 51.89-7.83L51.89-7.83Q49.03-7.69 48.89-4.27L48.89-4.27Q49.03-0.94 51.89-0.80L51.89-0.80Q54.70-0.98 54.89-4.27ZM56.06-4.27L56.06-4.27Q55.78 0 51.89 0.14L51.89 0.14Q47.95 0 47.67-4.27L47.67-4.27Q47.91-8.72 51.89-8.81L51.89-8.81Q55.78-8.67 56.06-4.27ZM60.05-1.92L60.05-2.77L61.13-2.77L61.13-2.16Q61.13-0.75 62.44-0.75L62.44-0.75Q63.80-0.75 63.80-2.25L63.80-2.25L63.80-8.58L64.97-8.58L64.97-2.30Q64.92 0.09 62.48 0.14L62.48 0.14Q60.19 0.09 60.05-1.92L60.05-1.92ZM72.42-3.19L72.42-8.58L73.59-8.58L73.59-3.05Q73.45 0.05 70.08 0.14L70.08 0.14Q66.94 0.05 66.80-2.86L66.80-2.86L66.80-8.58L67.97-8.58L67.97-3.19Q68.02-0.84 70.13-0.80L70.13-0.80Q72.42-0.84 72.42-3.19L72.42-3.19ZM76.78-8.58L81.09-1.64L81.09-8.58L82.22-8.58L82.22 0L80.91 0L76.55-6.94L76.50-6.94L76.50 0L75.38 0L75.38-8.58L76.78-8.58ZM85.17-5.06L89.67-5.06L89.67-8.58L90.84-8.58L90.84 0L89.67 0L89.67-3.98L85.17-3.98L85.17 0L84 0L84-8.58L85.17-8.58L85.17-5.06ZM98.30-3.19L98.30-8.58L99.47-8.58L99.47-3.05Q99.33 0.05 95.95 0.14L95.95 0.14Q92.81 0.05 92.67-2.86L92.67-2.86L92.67-8.58L93.84-8.58L93.84-3.19Q93.89-0.84 96-0.80L96-0.80Q98.30-0.84 98.30-3.19L98.30-3.19ZM101.44-8.58L102.61-8.58L102.61 0L101.44 0L101.44-8.58ZM111.33-8.58L108.42-4.41L111.47 0L110.02 0L107.67-3.52L105.33 0L103.92 0L107.02-4.41L104.11-8.58L105.56-8.58L107.72-5.30L109.92-8.58L111.33-8.58ZM112.73-8.58L113.91-8.58L113.91 0L112.73 0L112.73-8.58ZM117.28-8.58L121.59-1.64L121.59-8.58L122.72-8.58L122.72 0L121.41 0L117.05-6.94L117-6.94L117 0L115.88 0L115.88-8.58L117.28-8.58ZM130.92-3.61L128.30-3.61L128.30-4.59L132.05-4.59L132.05 0L131.30 0L131.02-1.08Q130.03 0.09 128.20 0.14L128.20 0.14Q126.47 0.14 125.53-0.75L125.53-0.75Q124.13-2.06 124.17-4.36L124.17-4.36Q124.50-8.63 128.25-8.81L128.25-8.81Q131.44-8.63 131.91-6L131.91-6L130.78-6Q130.31-7.78 128.20-7.83L128.20-7.83Q125.53-7.64 125.39-4.31L125.39-4.31Q125.39-0.75 128.25-0.75L128.25-0.75Q129.28-0.75 130.03-1.31L130.03-1.31Q130.97-2.06 130.92-3.61L130.92-3.61Z" transform="translate(-0.46875, 8.8125)"></path></g></g></g></g></g><defs v-gra="od"></defs></svg>